<svg xmlns="http://www.w3.org/2000/svg" width="30" height="28" viewBox="0 0 36 36" fill="none"><path d="M18.2164 9.06452L11.2786 16.1612L29.4216 16.1612L29.4237 16.1612C29.8485 16.1621 30.2509 16.3352 30.5444 16.6349C30.8371 16.9339 30.9983 17.3344 31 17.7479H31V17.7519L31 18.2432L31 18.2452C30.9992 18.6592 30.8383 19.0606 30.5455 19.3602C30.252 19.6607 29.8491 19.8342 29.4237 19.8351H29.4216H11.2777L18.2164 26.9367C18.2167 26.937 18.217 26.9373 18.2173 26.9376C18.363 27.0864 18.4774 27.2618 18.5551 27.4533C18.633 27.6451 18.6727 27.85 18.6727 28.0564C18.6727 28.2628 18.633 28.4677 18.5551 28.6595C18.4773 28.8511 18.3628 29.0267 18.217 29.1755C18.2168 29.1757 18.2166 29.1759 18.2164 29.1761L17.8772 29.5232C17.877 29.5234 17.8768 29.5236 17.8767 29.5238C17.7312 29.673 17.5572 29.7928 17.3639 29.875C17.1703 29.9573 16.9618 30 16.7508 30C16.5397 30 16.3313 29.9573 16.1377 29.875C15.9443 29.7928 15.7703 29.673 15.6249 29.5238C15.6247 29.5236 15.6245 29.5234 15.6243 29.5232L5.45634 19.1166C5.45615 19.1164 5.45597 19.1162 5.45578 19.116C5.30996 18.9672 5.19543 18.7917 5.11765 18.6001C5.03979 18.4082 5 18.2033 5 17.9969C5 17.7905 5.03979 17.5856 5.11765 17.3938C5.19538 17.2023 5.30982 17.0268 5.45552 16.8781C5.45579 16.8778 5.45607 16.8775 5.45634 16.8773L15.6259 6.47396L15.6264 6.47345C15.7723 6.32434 15.9469 6.2049 16.1408 6.12317C16.3346 6.04143 16.5432 5.99937 16.7543 6.00001C16.9653 6.00064 17.1736 6.04395 17.367 6.12683C17.5593 6.20928 17.7324 6.32895 17.8771 6.47786C17.8778 6.47861 17.8785 6.47935 17.8792 6.4801L18.2164 6.82518C18.2167 6.82549 18.217 6.82581 18.2173 6.82612C18.363 6.97484 18.4774 7.15024 18.5551 7.34172C18.633 7.53356 18.6727 7.73845 18.6727 7.94485C18.6727 8.15125 18.633 8.35615 18.5551 8.54798C18.4774 8.73934 18.3631 8.91464 18.2176 9.06331C18.2176 9.06334 18.2175 9.06337 18.2175 9.0634C18.2171 9.06378 18.2168 9.06415 18.2164 9.06452Z" fill="#5A6BE3" stroke="#fff" stroke-width="1"></path></svg>